<svg width="167" height="30" viewBox="0 0 167 30" fill="none" xmlns="http://www.w3.org/2000/svg">
<path d="M12.0798 11.0685C14.52 11.0685 16.5612 11.8803 18.2075 13.5018L20.8083 11.0685C18.8084 8.74485 15.8844 7.58203 12.0342 7.58203C8.59619 7.58203 5.72863 8.65709 3.43587 10.8052C1.14746 12.9533 0 15.622 0 18.8113C0 22.0005 1.11709 24.7291 3.35128 26.8373C5.58547 28.9455 8.49424 29.9986 12.0798 29.9986C15.6653 29.9986 18.6327 28.8099 20.8083 26.4304L18.3398 24.039C16.4896 25.6884 14.4159 26.5122 12.1232 26.5122C9.83042 26.5122 8.02355 25.7962 6.52469 24.3641C5.02583 22.932 4.27749 21.0811 4.27749 18.8113C4.27749 16.5415 4.99764 14.7165 6.43793 13.2565C7.87822 11.7965 9.75884 11.0685 12.082 11.0685H12.0798Z" fill="white"/>
<path d="M27.7296 0H23.541V29.6329H27.7296V0Z" fill="white"/>
<path d="M70.9346 21.6877C70.9346 23.1198 70.5593 24.2626 69.811 25.1123C69.0626 25.964 68.0106 26.3888 66.6593 26.3888C63.9262 26.3888 62.5596 24.863 62.5596 21.8074V7.94531H58.3711V22.2541C58.3711 24.5518 58.9654 26.3968 60.1563 27.787C61.3471 29.1792 63.1909 29.8753 65.6897 29.8753C68.1885 29.8753 69.9498 29.1313 70.9801 27.6454V29.6319H75.1687V7.94531H70.9368V21.6877H70.9346Z" fill="white"/>
<path d="M165.212 9.79129C164.022 8.3991 162.163 7.703 159.636 7.703C157.109 7.703 155.389 8.433 154.302 9.89101V7.94434H150.113V29.633H154.302V15.8507C154.302 14.3907 154.677 13.2418 155.425 12.4041C156.176 11.5664 157.241 11.1476 158.623 11.1476C161.414 11.1476 162.811 12.6754 162.811 15.729V29.6349H167V15.3241C167 13.0284 166.405 11.1835 165.215 9.79129H165.212Z" fill="white"/>
<path d="M98.3109 10.7027C96.4302 8.62239 93.7557 7.58124 90.2873 7.58124C86.8189 7.58124 83.9622 8.64832 81.7128 10.7845C79.4634 12.9186 78.3398 15.5953 78.3398 18.8105C78.3398 22.0257 79.4569 24.83 81.6911 26.8983C83.9231 28.9667 86.8189 29.9999 90.3762 29.9999C92.2287 29.9999 93.8729 29.6408 95.3131 28.9248C96.7534 28.2088 97.825 27.377 98.5321 26.4316V29.6349H102.499V0H98.3109V10.7027ZM96.261 24.3852C94.7774 25.8313 92.8577 26.5533 90.5086 26.5533C88.1594 26.5533 86.2831 25.8233 84.7995 24.3653C83.3158 22.9053 82.5739 21.0543 82.5739 18.8125C82.5739 16.5706 83.3158 14.6778 84.7995 13.2178C86.2831 11.7578 88.1876 11.0278 90.5086 11.0278C92.8295 11.0278 94.7405 11.7578 96.2394 13.2178C97.7382 14.6778 98.4866 16.5427 98.4866 18.8125C98.4866 21.0823 97.7447 22.9412 96.261 24.3872V24.3852Z" fill="white"/>
<path d="M135.562 7.58207C132.182 7.58207 129.419 8.63519 127.274 10.7434C125.128 12.8516 124.055 15.5542 124.055 18.8512C124.055 22.1482 125.157 24.9326 127.36 26.959C129.564 28.9855 132.445 29.9987 136.002 29.9987C138.618 29.9987 140.822 29.4183 142.616 28.2555C144.407 27.0946 145.731 25.6067 146.583 23.7957L143.364 22.2559C141.69 25.1201 139.234 26.5521 136.002 26.5521C133.768 26.5521 131.976 25.9637 130.625 24.789C129.274 23.6122 128.523 21.9986 128.376 19.9442H147.023C147.082 19.5114 147.112 18.931 147.112 18.201C147.082 14.9579 146.017 12.3769 143.917 10.4582C141.815 8.53945 139.03 7.58008 135.562 7.58008V7.58207ZM128.508 16.8248C128.773 14.9878 129.53 13.5418 130.779 12.4866C132.028 11.4315 133.607 10.905 135.518 10.905C137.575 10.905 139.258 11.4455 140.566 12.5265C141.874 13.6076 142.601 15.0397 142.748 16.8228H128.508V16.8248Z" fill="white"/>
<path d="M105.937 11.1884H117.973L105.672 26.674V29.6339H123.088V26.3908H110.522L123.088 10.9032V7.94531H105.937V11.1884Z" fill="white"/>
<path d="M53.8045 13.3443C53.6396 13.1009 53.4596 12.8616 53.2622 12.6262C52.3229 11.5093 51.1082 10.6975 49.6528 10.2148C49.3773 10.1231 49.0454 10.0772 48.7179 10.0872C48.4663 10.0951 48.2472 10.1869 48.1019 10.3465C47.9478 10.514 47.8828 10.7414 47.9218 10.9867C47.9522 11.1981 48.0173 11.3577 48.1105 11.4634C48.3622 11.7466 48.6268 12.0019 48.8979 12.2233C53.6201 16.2782 49.1973 20.5346 47.8958 19.8504C47.2819 19.5273 47.8004 17.7941 47.8524 17.3353C47.9739 16.2702 48.7851 11.976 46.3839 10.8072C44.3059 9.79597 41.0197 10.4163 38.4471 12.0717C34.6685 14.5031 34.0243 18.171 32.7315 17.826C31.9615 17.6205 31.9159 14.9558 35.6186 11.5532C38.7031 8.71493 43.178 9.00015 44.8243 9.28337C46.4707 9.5666 48.0845 9.77602 48.1778 8.89045C48.1951 8.72889 48.4251 7.58203 43.0044 7.58203C36.0828 7.58203 30.8379 12.2433 30.8379 18.8113C30.8379 25.3793 35.9071 29.9986 42.9611 29.9986C50.015 29.9986 55.1732 25.2556 55.1732 18.7694C55.1732 16.7609 54.6873 14.9259 53.8045 13.3462V13.3443ZM50.7916 25.3135C47.527 28.5566 42.1455 28.7959 39.1413 26.7755C38.2975 26.1691 37.445 25.2457 36.983 23.9991C36.983 23.9991 36.9786 23.9951 36.9765 23.9911C36.5882 22.936 36.4798 21.6475 36.9027 20.1197C37.5057 17.8659 39.664 14.3355 43.5294 13.7831C44.8373 13.6694 46.1583 13.8768 46.757 15.5602C47.9088 18.7893 43.8461 22.6667 46.8785 23.3229C47.6073 23.4625 49.4684 23.0995 51.0193 21.1768C52.7156 19.0726 52.477 16.9025 53.4075 17.0062C54.3381 17.1099 53.978 22.1461 50.7894 25.3135H50.7916Z" fill="white"/>
</svg>
